<?xml version="1.0" encoding="UTF-8"?>
<svg version="1.1" xmlns="http://www.w3.org/2000/svg" width="2048" height="1072">
<path d="M0 0 C675.84 0 1351.68 0 2048 0 C2048 353.76 2048 707.52 2048 1072 C1372.16 1072 696.32 1072 0 1072 C0 718.24 0 364.48 0 0 Z " fill="#D4A4DB" transform="translate(0,0)"/>
<path d="M0 0 C2.89119752 1.2866683 5.51582511 2.93634793 8.1875 4.625 C9.70746881 5.55480015 11.22830155 6.4831895 12.75 7.41015625 C13.4821875 7.8602002 14.214375 8.31024414 14.96875 8.77392578 C17.49406594 10.29822105 20.07651405 11.6909553 22.6875 13.0625 C27.57310211 15.67952207 32.17286929 18.65140332 36.80712891 21.68164062 C41.1834635 24.52487964 45.66729374 27.05208744 50.2734375 29.5078125 C54.89772034 32.03858047 59.34967743 34.84071007 63.81738281 37.63623047 C66.4557863 39.28478996 69.09913326 40.92531374 71.7421875 42.56640625 C81.92896059 48.90091792 92.08338492 55.24826207 102 62 C103.54082369 63.02210526 105.08245857 64.04298897 106.625 65.0625 C109.74471856 67.13857171 112.81596752 69.27309023 115.875 71.4375 C120.22260506 74.49692578 124.6701835 77.36064812 129.1640625 80.19921875 C137.35607936 85.40103662 145.2926502 90.88711514 153.08984375 96.65795898 C157.76312418 100.11168753 162.49089641 103.47825789 167.25 106.8125 C174.27230542 111.73876343 181.19459585 116.79001834 188.08227539 121.90258789 C191.79767462 124.65668967 195.52370117 127.38655315 199.3125 130.0390625 C199.97032471 130.50038574 200.62814941 130.96170898 201.3059082 131.43701172 C202.52953307 132.29086595 203.75705507 133.13917152 204.98901367 133.98095703 C206.36115781 134.93882596 207.6866262 135.96301318 209 137 C209 137.66 209 138.32 209 139 C209.66644531 139.20496094 210.33289063 139.40992188 211.01953125 139.62109375 C215.09572904 141.50693624 218.24546915 144.20805153 221.6875 147.0625 C223.02349987 148.15906424 224.36068455 149.25418702 225.69921875 150.34765625 C226.28533936 150.83242432 226.87145996 151.31719238 227.4753418 151.81665039 C229.00670022 153.08464809 229.00670022 153.08464809 231 154 C231 154.66 231 155.32 231 156 C231.9075 156.2475 232.815 156.495 233.75 156.75 C237.28451344 158.10942825 238.46990799 159.24666458 241 162 C242.34204602 163.2217812 243.69742421 164.42900464 245.0625 165.625 C246.06990234 166.51058594 246.06990234 166.51058594 247.09765625 167.4140625 C249.11810748 169.15582392 249.11810748 169.15582392 252 171 C252 171.66 252 172.32 252 173 C252.721875 173.2475 253.44375 173.495 254.1875 173.75 C257.27606582 175.12269592 259.51011418 176.72353296 262 179 C262 179.66 262 180.32 262 181 C262.99 181.2784375 262.99 181.2784375 264 181.5625 C267.48190784 183.23091417 269.8356273 185.34666202 272.6796875 187.92578125 C277.67199121 192.38859821 282.8521834 196.78173998 288.328125 200.640625 C288.87984375 201.08921875 289.4315625 201.5378125 290 202 C290 202.66 290 203.32 290 204 C290.53625 204.22816406 291.0725 204.45632813 291.625 204.69140625 C294.73791594 206.40658198 297.32037611 208.62867942 300 210.9375 C300.8511438 211.66404785 300.8511438 211.66404785 301.71948242 212.40527344 C306.67297966 216.66035023 311.48756884 221.05862593 316.27734375 225.49609375 C318.61165909 227.64286008 320.97480183 229.74022264 323.375 231.8125 C326.74390915 234.74443767 329.95628451 237.72800585 333 241 C333 241.66 333 242.32 333 243 C334.98 243.66 336.96 244.32 339 245 C339 245.99 339 246.98 339 248 C339.5465625 248.05285156 340.093125 248.10570312 340.65625 248.16015625 C344.06142651 249.3803445 346.08790637 251.85123613 348.5 254.4375 C351.45862933 257.58557835 354.059007 260.13713566 358 262 C359.640625 263.6640625 359.640625 263.6640625 361.25 265.625 C366.01892906 271.2480656 371.12265244 276.38865133 376.6953125 281.21484375 C381.24229928 285.17730084 385.61893992 289.29062757 389.9375 293.5 C391.08702148 294.58087891 391.08702148 294.58087891 392.25976562 295.68359375 C395.53397292 298.89109885 397.71417839 301.09422729 399.109375 305.515625 C398.98045291 309.6227145 398.31687118 313.27792802 397.3125 317.25 C396.93503359 318.83956771 396.55877192 320.4294219 396.18359375 322.01953125 C395.98749512 322.83631348 395.79139648 323.6530957 395.58935547 324.49462891 C394.61703662 328.62799096 393.744643 332.78152621 392.875 336.9375 C392.62036987 338.14297485 392.62036987 338.14297485 392.3605957 339.37280273 C391.49356328 343.50890346 390.69684129 347.64367756 390 351.8125 C389.06638595 357.18911662 387.49129404 362.3386983 385.9453125 367.56640625 C384.86608248 371.48641944 384.11569272 375.38773361 383.4921875 379.40234375 C382.8768649 382.64987969 381.90804004 385.82185985 381 389 C120.3 389 -140.4 389 -409 389 C-409 341.91573034 -409 341.91573034 -397.359375 328.73828125 C-395.89947518 326.94584699 -395.89947518 326.94584699 -394.5546875 324.58203125 C-392.99312369 321.98857979 -391.28315999 319.72290056 -389.375 317.375 C-388.67890625 316.51261719 -387.9828125 315.65023438 -387.265625 314.76171875 C-385.7044968 312.85875731 -384.13078291 310.96607458 -382.546875 309.08203125 C-381.74765625 308.12683594 -380.9484375 307.17164063 -380.125 306.1875 C-379.38507813 305.31480469 -378.64515625 304.44210937 -377.8828125 303.54296875 C-376.05710058 301.07712133 -374.98599379 298.89051865 -374 296 C-373.34 296 -372.68 296 -372 296 C-371.67 295.01 -371.34 294.02 -371 293 C-368.9375 292.3125 -368.9375 292.3125 -367 292 C-367 290.68 -367 289.36 -367 288 C-365.64453125 286.47265625 -365.64453125 286.47265625 -363.8125 285.0625 C-363.16925781 284.54558594 -362.52601563 284.02867187 -361.86328125 283.49609375 C-360.94095703 282.75552734 -360.94095703 282.75552734 -360 282 C-355.10713354 277.35177686 -350.74490047 272.23553485 -346.3828125 267.09375 C-342.46035758 262.51442463 -338.28240059 258.2444173 -333.99291992 254.01220703 C-330.44388849 250.49335129 -327.20494008 246.83029425 -324 243 C-321.75 240.5625 -321.75 240.5625 -320 239 C-319.34 239 -318.68 239 -318 239 C-317.7831958 238.45722412 -317.5663916 237.91444824 -317.34301758 237.35522461 C-315.5403469 234.19391503 -313.08881634 231.8424278 -310.51171875 229.31640625 C-309.97150589 228.77902328 -309.43129303 228.24164032 -308.87471008 227.68797302 C-307.15029294 225.97471454 -305.41906371 224.26853224 -303.6875 222.5625 C-302.53404448 221.41908438 -301.38104477 220.27520875 -300.22851562 219.13085938 C-298.09876287 217.01739279 -295.96635165 214.90668926 -293.83081055 212.79907227 C-290.3939085 209.40070383 -286.97542919 205.98485363 -283.57421875 202.55078125 C-280.70335685 199.70605769 -277.7779111 196.93297949 -274.8125 194.1875 C-274.27947266 193.68541016 -273.74644531 193.18332031 -273.19726562 192.66601562 C-269.23198342 189 -269.23198342 189 -267 189 C-267 188.34 -267 187.68 -267 187 C-265.49609375 185.51953125 -265.49609375 185.51953125 -263.4375 183.8125 C-260.70212655 181.49389974 -258.10933027 179.14762648 -255.625 176.5625 C-251.44298762 172.31288003 -246.87671432 168.43242232 -242 165 C-241.34 165 -240.68 165 -240 165 C-239.76667969 164.40703125 -239.53335938 163.8140625 -239.29296875 163.203125 C-237.68558899 160.46426643 -235.98890061 159.43863255 -233.3125 157.75 C-227.30650062 153.71702791 -222.99650034 148.9947505 -219 143 C-217.29903781 142.0212799 -215.59563002 141.04618343 -213.87255859 140.10693359 C-210.90474958 138.35255992 -208.38215893 136.0898411 -205.8125 133.8125 C-200.53642076 129.23320311 -195.10460334 124.99048822 -189.4609375 120.875 C-187.05921682 119.13193005 -187.05921682 119.13193005 -185.37109375 117.37109375 C-183.51229786 115.51229786 -181.31128206 114.39838265 -179.01171875 113.16015625 C-173.94648638 110.23904166 -169.29501487 106.77235777 -164.6875 103.1875 C-164.12353516 102.75244141 -163.55957031 102.31738281 -162.97851562 101.86914062 C-160.41275668 99.88717211 -157.8627059 97.89004411 -155.33203125 95.86328125 C-154.56246094 95.24839844 -153.79289063 94.63351562 -153 94 C-152.34 93.46375 -151.68 92.9275 -151 92.375 C-149 91 -149 91 -146.6484375 90.15625 C-142.43949062 88.31871567 -139.32857167 85.07723023 -135.9921875 81.98828125 C-133.12701252 79.44373299 -130.90675843 77.77229892 -127.1484375 76.84375 C-126.10945313 76.5653125 -125.07046875 76.286875 -124 76 C-123.67 75.01 -123.34 74.02 -123 73 C-121.35008418 72.29289322 -119.6792238 71.63437344 -118 71 C-114.86072782 69.10335639 -112.25935939 67.26506442 -109.69140625 64.640625 C-102.42438531 57.51071767 -93.6323603 52.65986508 -84.51171875 48.33203125 C-81.41629109 46.69044364 -79.40038025 44.53013054 -77 42 C-74.86926919 40.66829324 -72.68402808 39.49430941 -70.46484375 38.31640625 C-64.77205669 35.27604296 -59.23912501 31.98294791 -54.0625 28.125 C-51 26 -51 26 -48 26 C-48 25.34 -48 24.68 -48 24 C-46.906875 23.566875 -45.81375 23.13375 -44.6875 22.6875 C-41.83106962 21.47394641 -40.1477124 20.24533569 -38 18 C-37.25105469 17.71253906 -36.50210937 17.42507813 -35.73046875 17.12890625 C-32.77913127 15.90868231 -30.5139016 14.37953873 -27.9375 12.5 C-20.70278638 7.23839009 -20.70278638 7.23839009 -15.875 6.5625 C-14.92625 6.376875 -13.9775 6.19125 -13 6 C-12.34 5.01 -11.68 4.02 -11 3 C-7.19552463 0.14664347 -4.71364765 -0.52373863 0 0 Z " fill="#E4C5DF" transform="translate(409,683)"/>
<path d="M0 0 C12.26086957 2.04347826 12.26086957 2.04347826 18 4 C19.99948155 4.22216462 21.99904044 4.44391046 24 4.65234375 C26 5 26 5 29.4375 6.5 C32.52390549 7.79953916 34.16789661 8.20961224 37.375 8.4375 C40.68225034 8.71448914 43.08676901 9.35014077 46.0625 10.8125 C50.56114859 12.9697018 55.08210162 14.07812094 59.92651367 15.21801758 C66.82321963 16.88219705 73.59386876 18.91880013 80.375 21 C82.01456665 21.49838379 82.01456665 21.49838379 83.68725586 22.00683594 C88.42355637 23.47169342 93.08866108 24.98106144 97.671875 26.875 C105.25516159 29.9967228 113.09113844 32.43336948 120.875 35 C122.46233369 35.52575763 124.04957389 36.0517976 125.63671875 36.578125 C131.30552487 38.45708855 136.97537921 40.33285086 142.64746094 42.2019043 C143.70481445 42.55164307 144.76216797 42.90138184 145.8515625 43.26171875 C146.74955566 43.55780029 147.64754883 43.85388184 148.57275391 44.15893555 C150.91729565 44.97134214 153.20729567 45.86462999 155.5 46.8125 C160.49666637 48.86427121 165.58337373 50.61375725 170.6875 52.375 C190.72633433 59.31381468 190.72633433 59.31381468 198.921875 63.48828125 C202.49610185 65.24364393 206.13294978 66.59002571 209.875 67.9375 C214.77919685 69.73487288 219.47664072 71.61046417 224.08984375 74.07421875 C226.4616465 75.22374278 228.88693239 76.06892563 231.375 76.9375 C236.03843472 78.57809892 240.35514811 80.58690333 244.74609375 82.84765625 C248.69285816 84.86549941 252.7475998 86.53245977 256.8984375 88.08203125 C263.36147344 90.49991287 269.5022779 93.16919576 275.6328125 96.33203125 C279.7205892 98.3569508 283.88164984 100.1772684 288.0625 102 C294.08372274 104.6309705 299.8566548 107.46877105 305.578125 110.7109375 C307.93143198 111.96350412 310.25655076 112.9379194 312.75 113.875 C317.99524499 115.86196279 322.83057206 118.48410669 327.73535156 121.18310547 C330.25414257 122.56371196 332.72679466 123.89248388 335.40209961 124.9453125 C338.05727648 126.02325293 340.48161888 127.28589963 342.984375 128.6796875 C344.38816406 129.45505859 344.38816406 129.45505859 345.8203125 130.24609375 C347.75818423 131.32355043 349.69569037 132.40166496 351.6328125 133.48046875 C357.31392747 136.61675551 363.01412567 139.49009428 369 142 C369 142.66 369 143.32 369 144 C370.03125 144.268125 371.0625 144.53625 372.125 144.8125 C375.6485042 145.80998897 378.76880827 147.2661898 382 149 C382 149.66 382 150.32 382 151 C383.8871875 151.556875 383.8871875 151.556875 385.8125 152.125 C400.15496191 156.92858645 400.15496191 156.92858645 403.31640625 162.19140625 C403.65478516 163.08666016 403.65478516 163.08666016 404 164 C402.68 164.33 401.36 164.66 400 165 C400 165.66 400 166.32 400 167 C399.00484375 167.56589844 398.0096875 168.13179687 396.984375 168.71484375 C393.05223606 170.9630531 389.14391309 173.2487821 385.25 175.5625 C384.59128906 175.94857422 383.93257813 176.33464844 383.25390625 176.73242188 C379.63451411 178.84996564 379.63451411 178.84996564 376.49121094 181.58959961 C374.26955278 183.69086339 371.96013426 183.67109619 369 184 C368.67 184.99 368.34 185.98 368 187 C364.4375 188.1875 364.4375 188.1875 361 189 C361 189.66 361 190.32 361 191 C360.40832031 191.31453125 359.81664062 191.6290625 359.20703125 191.953125 C354.18222162 194.66708373 354.18222162 194.66708373 349.5625 198 C346.37854629 200.48503704 342.98385603 202.08296128 339.36328125 203.84765625 C335.62304947 205.67140563 332.65354007 207.29886643 329.80078125 210.359375 C326.78090299 213.20656845 323.68305122 214.94780795 320 216.75 C310.95361519 221.37333482 302.07635186 226.61531036 295 234 C290.59281437 237.85628743 290.59281437 237.85628743 287.9375 238.5 C285.79363109 238.87829526 285.79363109 238.87829526 284.0625 240.9375 C282 243 282 243 279.76953125 243.7890625 C275.51656167 245.64861196 272.38834805 248.83234705 268.9921875 251.92382812 C265.17477166 255.29133424 261.71956859 257.10880545 257 259 C255.21146853 260.22234567 255.21146853 260.22234567 253.8125 261.625 C245.25946933 269.35341112 235.49075373 276.62842448 225.5234375 282.4453125 C222.82402424 284.1084185 220.49194596 285.9636077 218.0625 288 C211.97742919 293.04474663 205.77896589 297.93585252 199.53613281 302.78369141 C198.08801748 303.93030784 196.67912247 305.12596293 195.2734375 306.32421875 C193 308 193 308 190 308 C189.62875 308.8353125 189.62875 308.8353125 189.25 309.6875 C187.77075182 312.42410913 186.06532561 314.67650869 184 317 C183.34 317 182.68 317 182 317 C181.67 317.99 181.34 318.98 181 320 C178.890625 321.6484375 178.890625 321.6484375 176.25 323.375 C172.35658836 325.92786571 169.26442494 328.68581248 166 332 C163.92972177 333.76992698 161.85131358 335.51820302 159.75 337.25 C154.77663535 341.38562617 150.15265955 345.70840705 145.70703125 350.41796875 C144 352 144 352 142 352 C142 352.66 142 353.32 142 354 C140.56640625 355.48046875 140.56640625 355.48046875 138.5625 357.1875 C137.83546875 357.81011719 137.1084375 358.43273437 136.359375 359.07421875 C134.05676091 360.95367032 131.69764985 362.72714533 129.3125 364.5 C125.91439195 367.097871 123.66361779 369.59441093 121.36474609 373.16723633 C119.90452838 375.12821207 118.37769095 376.51150948 116.5 378.07421875 C111.26463028 382.56541764 106.42707694 387.42660278 101.5625 392.3125 C100.19834961 393.67084961 100.19834961 393.67084961 98.80664062 395.05664062 C97.94361328 395.92095703 97.08058594 396.78527344 96.19140625 397.67578125 C95.40967041 398.45864502 94.62793457 399.24150879 93.82250977 400.0480957 C91.94470633 401.87430532 91.94470633 401.87430532 91 404 C90.34 404 89.68 404 89 404 C88.34 405.32 87.68 406.64 87 408 C86.34 408 85.68 408 85 408 C84.67 408.99 84.34 409.98 84 411 C82.37253091 412.73207012 80.72125838 414.36525849 79 416 C76.34572837 418.5956216 73.70472329 421.20462316 71.0625 423.8125 C70.37220703 424.48603516 69.68191406 425.15957031 68.97070312 425.85351562 C65.05165301 429.73541834 61.54815435 433.68362586 58.328125 438.16552734 C54.72371751 443.14411519 51.42019132 446.9887826 46 450 C45.34 450.99 44.68 451.98 44 453 C43.34 453 42.68 453 42 453 C42 454.32 42 455.64 42 457 C41.0409375 457.433125 41.0409375 457.433125 40.0625 457.875 C37.84793921 458.82823451 37.84793921 458.82823451 37 461 C36.34 461 35.68 461 35 461 C34.92910156 461.70769531 34.85820313 462.41539062 34.78515625 463.14453125 C33.76651576 466.8491392 31.96127325 468.80153639 29.4375 471.6875 C28.5265492 472.74541009 27.61640453 473.80401482 26.70703125 474.86328125 C26.02374756 475.6514624 26.02374756 475.6514624 25.32666016 476.45556641 C20.51470503 482.05741185 16.0273977 487.81506782 12 494 C8.56587372 498.4998896 4.89004583 502.8853321 1 507 C0.67 507 0.34 507 0 507 C0 339.69 0 172.38 0 0 Z " fill="#9562BE" transform="translate(0,518)"/>
<path d="M0 0 C2.00814678 3.01222017 2.43178644 4.49266527 3 7.97265625 C3.165 8.95556641 3.33 9.93847656 3.5 10.95117188 C3.665 11.97791016 3.83 13.00464844 4 14.0625 C4.33207811 16.07442633 4.66540205 18.08614745 5 20.09765625 C5.16443604 21.09104004 5.32887207 22.08442383 5.49829102 23.10791016 C5.96191288 25.7804477 6.47961174 28.43346103 7.02734375 31.08984375 C8.25434791 37.09112948 9.08905137 43.1397287 9.94335938 49.203125 C10.12801758 50.47929687 10.12801758 50.47929687 10.31640625 51.78125 C10.42412354 52.54501953 10.53184082 53.30878906 10.64282227 54.09570312 C10.92428993 56.07746451 10.92428993 56.07746451 12 58 C12.41342609 60.69482883 12.7829386 63.38149606 13.12109375 66.0859375 C13.27832664 67.30417709 13.27832664 67.30417709 13.43873596 68.54702759 C13.77509043 71.15592462 14.10666802 73.76539735 14.4375 76.375 C14.87092937 79.77900627 15.30692144 83.18266733 15.74609375 86.5859375 C15.85287949 87.41505142 15.95966522 88.24416534 16.06968689 89.09840393 C16.64719711 93.51741186 17.29296484 97.91020664 18.0625 102.30078125 C19.2430014 109.10161233 19.89383911 115.94545879 20.5625 122.8125 C20.81255387 125.33996755 21.06381695 127.86731582 21.31640625 130.39453125 C21.42412354 131.49643799 21.53184082 132.59834473 21.64282227 133.73364258 C22.01854289 137.16957306 22.49430055 140.58095025 23 144 C23.83149855 149.7281011 24.12054783 155.2137042 24 161 C23.67 161 23.34 161 23 161 C22.1598118 155.91438802 21.32379633 150.8281131 20.49145508 145.74121094 C20.20839048 144.01479076 19.9242338 142.28854924 19.63891602 140.5625 C17.66971689 128.6438447 15.79789372 116.98852947 15.9375 104.875 C15.94201172 104.10929687 15.94652344 103.34359375 15.95117188 102.5546875 C15.96274436 100.70308963 15.98066845 98.85153312 16 97 C15.34 97 14.68 97 14 97 C13.85304688 95.71996094 13.70609375 94.43992187 13.5546875 93.12109375 C12.06084702 80.49260896 10.30304387 67.91160298 8.39312744 55.34011841 C8.13349565 53.62953548 7.87576784 51.91866234 7.62005615 50.20748901 C6.32131152 41.54082951 4.89519346 33.05358495 2.63818359 24.57470703 C1.69428538 20.76661575 1.21065573 16.96004282 0.8125 13.0625 C0.73064453 12.34771484 0.64878906 11.63292969 0.56445312 10.89648438 C0.16299131 7.24959176 -0.09333601 3.6688231 0 0 Z " fill="#D98FCA" transform="translate(1408,255)"/>
<path d="M0 0 C0.33 0 0.66 0 1 0 C2.71708349 12.22693035 2.99462085 24.61400604 3.5625 36.9375 C3.61364204 38.03973907 3.61364204 38.03973907 3.66581726 39.16424561 C5.100685 70.43771026 5.27814438 101.69785348 5.25 133 C5.24953297 134.13515423 5.24906593 135.27030846 5.24858475 136.4398613 C5.22044697 201.07117503 5.22044697 201.07117503 3 228 C2.67 228 2.34 228 2 228 C2 206.55 2 185.1 2 163 C2.33 163 2.66 163 3 163 C3.28018754 115.83884839 3.28018754 115.83884839 2.5625 68.6875 C2.54285187 67.96687378 2.52320374 67.24624756 2.50296021 66.50378418 C2.46872486 59.13704692 2.46872486 59.13704692 1 52 C0.93021572 50.57186467 0.91555664 49.14060839 0.9375 47.7109375 C0.95006836 46.43488647 0.95006836 46.43488647 0.96289062 45.13305664 C0.97513672 44.22289795 0.98738281 43.31273926 1 42.375 C1.05655541 34.88333557 0.87377336 27.47419977 0.35766602 20.00170898 C-0.08739917 13.32573119 -0.09540604 6.6890234 0 0 Z " fill="#B080CC" transform="translate(836,524)"/>
<path d="M0 0 C0 0.66 0 1.32 0 2 C-0.59167969 2.31453125 -1.18335938 2.6290625 -1.79296875 2.953125 C-6.81777838 5.66708373 -6.81777838 5.66708373 -11.4375 9 C-14.62145371 11.48503704 -18.01614397 13.08296128 -21.63671875 14.84765625 C-25.37695053 16.67140563 -28.34645993 18.29886643 -31.19921875 21.359375 C-34.21909701 24.20656845 -37.31694878 25.94780795 -41 27.75 C-50.04638481 32.37333482 -58.92364814 37.61531036 -66 45 C-70.40718563 48.85628743 -70.40718563 48.85628743 -73.0625 49.5 C-75.20636891 49.87829526 -75.20636891 49.87829526 -76.9375 51.9375 C-79 54 -79 54 -81.23046875 54.7890625 C-85.48343833 56.64861196 -88.61165195 59.83234705 -92.0078125 62.92382812 C-95.82077847 66.28740882 -99.28056203 68.1213335 -104 70 C-106.37791979 72.04044964 -106.37791979 72.04044964 -108 74 C-108.66 73.67 -109.32 73.34 -110 73 C-96.68587896 61 -96.68587896 61 -92 61 C-92 60.34 -92 59.68 -92 59 C-90.35546875 57.4921875 -90.35546875 57.4921875 -88.1875 55.875 C-87.47980469 55.33617187 -86.77210938 54.79734375 -86.04296875 54.2421875 C-84 53 -84 53 -81 53 C-80.67 52.01 -80.34 51.02 -80 50 C-78.46875 48.82421875 -78.46875 48.82421875 -76.5 47.6875 C-67.28709242 42.18921057 -58.45345134 36.05162531 -50.00390625 29.4375 C-47.68504173 27.77406503 -45.28293316 26.50100677 -42.75 25.1875 C-38.42951212 22.8717185 -34.57553015 20.33223821 -30.71484375 17.32421875 C-25.11504425 13 -25.11504425 13 -21 13 C-21 12.34 -21 11.68 -21 11 C-20.0925 10.484375 -19.185 9.96875 -18.25 9.4375 C-15.79551396 8.04141656 -13.36053493 6.61957938 -10.93359375 5.17578125 C-9.86238281 4.54027344 -8.79117188 3.90476562 -7.6875 3.25 C-6.66011719 2.63640625 -5.63273437 2.0228125 -4.57421875 1.390625 C-2 0 -2 0 0 0 Z " fill="#B684CB" transform="translate(361,707)"/>
<path d="M0 0 C0.33 0 0.66 0 1 0 C2.01498687 10.24669425 2.99182131 20.4966895 3.9375 30.75 C4.00790749 31.51314011 4.07831497 32.27628021 4.15085602 33.06254578 C6.81225814 62.05794745 8.02695002 90.87088153 8 120 C7.34 120 6.68 120 6 120 C4.90001805 104.01860569 3.90020282 88.03863447 3.18359375 72.03515625 C3.15226978 71.33705212 3.12094582 70.63894798 3.08867264 69.91968918 C2.86746213 64.96747221 2.65183371 60.0150187 2.4375 55.0625 C2.21937133 50.02277208 1.99913709 44.98315408 1.77354622 39.9437542 C1.68623121 37.96978253 1.60275276 35.99564232 1.51939392 34.02149963 C1.24900926 27.95688191 0.81998061 22.01333515 0 16 C-0.06809887 14.57417076 -0.10955129 13.14615498 -0.09765625 11.71875 C-0.09443359 11.02265625 -0.09121094 10.3265625 -0.08789062 9.609375 C-0.07951172 8.91328125 -0.07113281 8.2171875 -0.0625 7.5 C-0.05798828 6.77296875 -0.05347656 6.0459375 -0.04882812 5.296875 C-0.03721193 3.53121319 -0.01928441 1.7655947 0 0 Z " fill="#CF7FC7" transform="translate(1432,418)"/>
<path d="M0 0 C2.57360092 2.57360092 2.66383448 4.3479255 3.3671875 7.90625 C3.61098145 9.11563232 3.85477539 10.32501465 4.10595703 11.57104492 C4.36244591 12.88066897 4.61879044 14.19032128 4.875 15.5 C5.40852386 18.17376816 5.94663122 20.84660911 6.484375 23.51953125 C6.68155624 24.50570183 6.68155624 24.50570183 6.88272095 25.51179504 C7.86994924 30.42798116 8.9735846 35.30791533 10.125 40.1875 C12.15290705 48.90127843 13.42144404 57.73372021 14.69384766 66.5847168 C14.85030762 67.66148682 15.00676758 68.73825684 15.16796875 69.84765625 C15.37329224 71.3018396 15.37329224 71.3018396 15.58276367 72.78540039 C15.77805445 74.96604252 15.77805445 74.96604252 17 76 C17.40748969 78.1468073 17.75830061 80.3044078 18.0859375 82.46484375 C18.1875267 83.12548325 18.28911591 83.78612274 18.39378357 84.46678162 C18.72468794 86.62312179 19.0499777 88.78026605 19.375 90.9375 C19.82243074 93.87657662 20.27226884 96.81528141 20.72265625 99.75390625 C20.83282578 100.47505615 20.9429953 101.19620605 21.0565033 101.93920898 C21.90019027 107.43221509 22.84079623 112.90360718 23.8125 118.375 C24.85136789 124.31798611 25.29200978 129.96513128 25 136 C24.67 136 24.34 136 24 136 C23.89453857 135.27111572 23.78907715 134.54223145 23.68041992 133.79125977 C20.99585129 115.26471067 20.99585129 115.26471067 17.8515625 96.8125 C17.10693615 92.69580642 16.43808111 88.56769447 15.7734375 84.4375 C15.55145225 83.0680988 15.32936476 81.69871418 15.10717773 80.3293457 C14.7730562 78.26971193 14.44102654 76.20986262 14.11599731 74.14877319 C13.8110724 72.21673512 13.49747956 70.28607125 13.18359375 68.35546875 C13.00368896 67.22778076 12.82378418 66.10009277 12.63842773 64.93823242 C12.06001877 62.27622405 11.2808662 60.37284433 10 58 C9.69140625 55.625 9.69140625 55.625 9.5625 53 C9.02769481 45.76554439 7.2903128 38.8709384 5 32 C4.82788289 30.6334005 4.68620186 29.26280119 4.56640625 27.890625 C3.98491009 22.2691161 2.68995291 16.88478651 1.37304688 11.3984375 C0.46974193 7.52051297 -0.2489222 4.01487424 0 0 Z " fill="#B377BD" transform="translate(803,308)"/>
<path d="M0 0 C0 0.66 0 1.32 0 2 C-5.30165009 3.80328234 -10.61045013 5.4746557 -16 7 C-16.99 7.33 -17.98 7.66 -19 8 C-23.55445864 9.51815288 -28.16954108 10.78217471 -32.8125 12 C-36.05608582 12.74740711 -36.05608582 12.74740711 -38 15 C-40.1640625 15.1953125 -40.1640625 15.1953125 -42.625 15.125 C-43.44226563 15.10695313 -44.25953125 15.08890625 -45.1015625 15.0703125 C-45.72804688 15.04710938 -46.35453125 15.02390625 -47 15 C-44.71523694 11.57285542 -44.29956034 11.52798193 -40.5 10.625 C-39.51902344 10.37878906 -38.53804687 10.13257813 -37.52734375 9.87890625 C-36.36332031 9.58886719 -35.19929687 9.29882812 -34 9 C-31.01579808 8.20556367 -28.03870849 7.38632197 -25.0625 6.5625 C-24.28890137 6.34972412 -23.51530273 6.13694824 -22.71826172 5.91772461 C-17.19706006 4.38172933 -11.77590712 2.6428839 -6.3828125 0.69921875 C-4 0 -4 0 0 0 Z " fill="#E3B4D8" transform="translate(551,49)"/>
<path d="M0 0 C0.99 0.495 0.99 0.495 2 1 C2.7542374 3.66497215 3.39360684 6.30030444 4 9 C4.51431665 11.14740458 5.03538139 13.29320197 5.5625 15.4375 C5.81128906 16.46746094 6.06007813 17.49742187 6.31640625 18.55859375 C6.76476398 20.92818439 6.76476398 20.92818439 8 22 C8.43135443 24.15987542 8.81740712 26.32878842 9.1875 28.5 C10.72442435 37.23005797 12.8346086 45.80407774 15.01831055 54.39257812 C15.40176636 55.93461914 15.40176636 55.93461914 15.79296875 57.5078125 C16.0252417 58.42191895 16.25751465 59.33602539 16.49682617 60.27783203 C17.0439803 63.23793319 17.08529063 65.9963345 17 69 C16.67 69 16.34 69 16 69 C15.62246582 67.44442383 15.62246582 67.44442383 15.23730469 65.85742188 C14.28358969 61.92841466 13.32914834 57.99958416 12.37451172 54.07080078 C11.96514065 52.38562591 11.55595433 50.70040614 11.14697266 49.01513672 C9.96175837 44.13158792 8.77265478 39.24901443 7.57836914 34.36767578 C7.19541082 32.7999553 6.81371967 31.23192469 6.43334961 29.66357422 C5.90173998 27.47276937 5.36549267 25.28314855 4.828125 23.09375 C4.37034668 21.21719727 4.37034668 21.21719727 3.90332031 19.30273438 C3.11344927 16.41479508 2.12704981 13.76631268 1 11 C0.7240522 9.07096868 0.51550097 7.1310968 0.375 5.1875 C0.30023437 4.21167969 0.22546875 3.23585937 0.1484375 2.23046875 C0.09945312 1.49441406 0.05046875 0.75835937 0 0 Z " fill="#BF7BBC" transform="translate(786,239)"/>
<path d="M0 0 C0.33 0 0.66 0 1 0 C1.05493545 2.14553464 1.09320737 4.29149766 1.125 6.4375 C1.14820313 7.63246094 1.17140625 8.82742188 1.1953125 10.05859375 C1.01173933 13.76310038 0.42797182 16.94292712 -0.43408203 20.52514648 C-1.51341191 25.2452358 -2.22346554 30.03499304 -3 34.8125 C-3.33333333 36.83984375 -3.66666667 38.8671875 -4 40.89453125 C-4.16387207 41.89597168 -4.32774414 42.89741211 -4.49658203 43.92919922 C-6.91517028 58.68235294 -6.91517028 58.68235294 -8.125 65.25 C-8.37636719 66.61898437 -8.37636719 66.61898437 -8.6328125 68.015625 C-8.81457031 68.99789062 -8.81457031 68.99789062 -9 70 C-9.33 70 -9.66 70 -10 70 C-10.33 67.03 -10.66 64.06 -11 61 C-10.34 61 -9.68 61 -9 61 C-8.67 55.72 -8.34 50.44 -8 45 C-7.67 45 -7.34 45 -7 45 C-4.28754254 30.04314899 -1.93118432 15.07792185 0 0 Z " fill="#AE82D2" transform="translate(822,896)"/>
<path d="M0 0 C0.33 0 0.66 0 1 0 C1.31370077 12.53641236 0.46277055 24.88686091 -0.59912109 37.37304688 C-0.87505764 40.62567948 -1.13944246 43.87910302 -1.40234375 47.1328125 C-2.28132061 57.81308378 -3.25964024 68.4196433 -5 79 C-5.33 79 -5.66 79 -6 79 C-5.8594438 75.66642262 -5.71158198 72.33320611 -5.5625 69 C-5.52318359 68.06542969 -5.48386719 67.13085938 -5.44335938 66.16796875 C-5.25301686 61.98043332 -5.02541638 57.83944391 -4.46484375 53.68359375 C-4.05158951 50.40881432 -3.92610851 47.35528968 -4 44.0625 C-4.03712994 42.37540853 -4.04743292 40.68683324 -4 39 C-3.505 38.505 -3.505 38.505 -3 38 C-2.99705387 35.66666853 -2.99766667 33.33333217 -3 31 C-2.72441578 28.49566185 -2.4099267 25.99538593 -2.0625 23.5 C-1.01359481 15.67853416 -0.43017392 7.87897496 0 0 Z " fill="#AE81D1" transform="translate(837,753)"/>
<path d="M0 0 C4.02024179 2.12179428 6.20719775 4.46245049 9 8 C9.99 8.33 10.98 8.66 12 9 C13.40893555 10.42578125 13.40893555 10.42578125 14.94921875 12.3125 C19.45026452 17.61481003 24.3304142 22.51649026 29.24487305 27.43017578 C30.83216334 29.0196909 32.41123553 30.61709657 33.99023438 32.21484375 C34.99951207 33.22704926 36.00926004 34.23878611 37.01953125 35.25 C37.92807861 36.16265625 38.83662598 37.0753125 39.77270508 38.015625 C41.75170843 40.22173894 41.75170843 40.22173894 44 40 C44 40.66 44 41.32 44 42 C39.92942892 41.46991705 38.10021001 39.43461942 35.296875 36.5546875 C34.39839844 35.64203125 33.49992188 34.729375 32.57421875 33.7890625 C31.63235947 32.8181476 30.69095564 31.84679068 29.75 30.875 C24.22340188 25.216261 18.73568041 19.62073185 12.71972656 14.47949219 C10.38728287 12.47287538 8.18462551 10.35316175 6 8.1875 C5.236875 7.43855469 4.47375 6.68960938 3.6875 5.91796875 C2 4 2 4 2 2 C1.34 2 0.68 2 0 2 C0 1.34 0 0.68 0 0 Z " fill="#BF96D4" transform="translate(765,943)"/>
<path d="M0 0 C0.66 0.33 1.32 0.66 2 1 C-1.9723909 5.73161919 -6.14750325 10.1801024 -10.5625 14.5 C-14.28756612 18.16034247 -17.6291535 21.8903958 -20.6640625 26.14453125 C-22.10197097 28.14162635 -23.61402604 30.04549351 -25.1875 31.9375 C-25.65542969 32.50339844 -26.12335937 33.06929687 -26.60546875 33.65234375 C-28 35 -28 35 -31 36 C-31 35.34 -31 34.68 -31 34 C-30.01 33.505 -30.01 33.505 -29 33 C-28.67 32.01 -28.34 31.02 -28 30 C-26.44140625 28.5703125 -26.44140625 28.5703125 -24.5625 27.125 C-21.58924844 24.6757231 -19.96001417 22.84005667 -19 19 C-19 18.34 -19 17.68 -19 17 C-18.34 17 -17.68 17 -17 17 C-15.83587282 15.87011185 -14.67882779 14.73201398 -13.55859375 13.55859375 C-11.76600483 11.76600483 -9.86794589 10.14285618 -7.9375 8.5 C-4.91755823 5.89109001 -2.35795342 3.24218595 0 0 Z " fill="#AF80CC" transform="translate(79,930)"/>
<path d="M0 0 C2.00814678 3.01222017 2.43178644 4.49266527 3 7.97265625 C3.165 8.95556641 3.33 9.93847656 3.5 10.95117188 C3.665 11.97791016 3.83 13.00464844 4 14.0625 C4.33207811 16.07442633 4.66540205 18.08614745 5 20.09765625 C5.16258301 21.08604492 5.32516602 22.07443359 5.49267578 23.09277344 C5.97471317 25.85509359 6.53324443 28.5897229 7.1171875 31.33203125 C7.89682475 35.14744781 8.21588318 38.71702343 8.125 42.625 C8.10695313 43.64851563 8.08890625 44.67203125 8.0703125 45.7265625 C8.03550781 46.85191406 8.03550781 46.85191406 8 48 C7.67 48 7.34 48 7 48 C6.88406494 47.28344238 6.76812988 46.56688477 6.64868164 45.82861328 C6.12332643 42.59351736 5.59297734 39.35925979 5.0625 36.125 C4.88009766 34.99707031 4.69769531 33.86914062 4.50976562 32.70703125 C4.33251953 31.63066406 4.15527344 30.55429687 3.97265625 29.4453125 C3.81031494 28.45031738 3.64797363 27.45532227 3.48071289 26.43017578 C3.11232627 24.00369478 3.11232627 24.00369478 2 22 C1.60322845 19.22839146 1.25114839 16.4685157 0.9375 13.6875 C0.84662109 12.92759766 0.75574219 12.16769531 0.66210938 11.38476562 C0.22113889 7.56854738 -0.11524622 3.84922368 0 0 Z " fill="#DD98CC" transform="translate(1408,255)"/>
<path d="M0 0 C0.556875 0.226875 1.11375 0.45375 1.6875 0.6875 C0.19476563 1.53634766 0.19476563 1.53634766 -1.328125 2.40234375 C-5.26026394 4.6505531 -9.16858691 6.9362821 -13.0625 9.25 C-13.72121094 9.63607422 -14.37992187 10.02214844 -15.05859375 10.41992188 C-18.67798589 12.53746564 -18.67798589 12.53746564 -21.82128906 15.27709961 C-24.04294722 17.37836339 -26.35236574 17.35859619 -29.3125 17.6875 C-29.6425 18.6775 -29.9725 19.6675 -30.3125 20.6875 C-33.875 21.875 -33.875 21.875 -37.3125 22.6875 C-35.9375 21.1875 -35.9375 21.1875 -34.3125 19.6875 C-33.6525 19.6875 -32.9925 19.6875 -32.3125 19.6875 C-32.3125 19.0275 -32.3125 18.3675 -32.3125 17.6875 C-31.49007813 17.25179687 -30.66765625 16.81609375 -29.8203125 16.3671875 C-23.5066188 12.99891211 -17.30546961 9.55707015 -11.23828125 5.75390625 C-9.3125 4.6875 -9.3125 4.6875 -7.3125 4.6875 C-7.3125 4.0275 -7.3125 3.3675 -7.3125 2.6875 C-3.15982824 -0.42700382 -3.15982824 -0.42700382 0 0 Z " fill="#B886CB" transform="translate(398.3125,684.3125)"/>
<path d="M0 0 C4.12152402 1.45465554 7.42896249 3.49267579 11 6 C12.175625 6.804375 12.175625 6.804375 13.375 7.625 C13.91125 8.07875 14.4475 8.5325 15 9 C15 9.66 15 10.32 15 11 C15.721875 11.226875 16.44375 11.45375 17.1875 11.6875 C20.58897247 13.27485382 22.41025643 15.2869353 25 18 C27.29958994 20.04034598 29.64448698 22.02462741 32 24 C27.81027553 24 25.97275132 21.65759106 23 19 C18.79419613 15.32821008 14.56022806 11.85929218 10 8.625 C6.28830294 5.99159157 3.05403272 3.36996714 0 0 Z " fill="#C77BC0" transform="translate(1600,616)"/>
<path d="M0 0 C0.99 0 1.98 0 3 0 C3 0.66 3 1.32 3 2 C3.82951172 2.38091797 3.82951172 2.38091797 4.67578125 2.76953125 C11.68419917 6.47987015 24.39009001 13.78018002 28 21 C22.96397758 19.40297344 19.24644143 16.37295052 15.125 13.1875 C13.75319542 12.13854924 12.38080416 11.09036525 11.0078125 10.04296875 C10.34426758 9.5329834 9.68072266 9.02299805 8.99707031 8.49755859 C7.02959654 7.02219379 5.02012182 5.6288502 2.9921875 4.23828125 C2.00476563 3.49964844 1.01734375 2.76101563 0 2 C0 1.34 0 0.68 0 0 Z " fill="#C59CD9" transform="translate(574,787)"/>
<path d="M0 0 C6.68931467 1.09660896 11.60531979 3.18212835 17.421875 6.66015625 C19.99705001 7.9984669 22.17955542 8.44281427 25 9 C25.33 9.66 25.66 10.32 26 11 C27.88263881 11.90343684 27.88263881 11.90343684 30.0625 12.625 C30.79597656 12.88539063 31.52945312 13.14578125 32.28515625 13.4140625 C32.85105469 13.60742188 33.41695312 13.80078125 34 14 C34 14.66 34 15.32 34 16 C26.25 14.125 26.25 14.125 24 13 C24 12.34 24 11.68 24 11 C22.700625 10.79375 21.40125 10.5875 20.0625 10.375 C15.24644926 9.33758026 12.03727566 7.18115403 8.0859375 4.33203125 C5.45187191 2.64997813 3.10337773 2.15914758 0 2 C0 1.34 0 0.68 0 0 Z " fill="#D58BCC" transform="translate(1514,567)"/>
<path d="M0 0 C0 0.66 0 1.32 0 2 C-2.45813641 3.05348703 -4.73126042 3.95033196 -7.3671875 4.4375 C-10.09930085 5.02121561 -12.38501032 5.93746901 -14.9375 7.0625 C-18.79503507 8.65971557 -21.76794458 9.44547952 -26 9 C-26 8.01 -26 7.02 -26 6 C-24.515 5.72736328 -24.515 5.72736328 -23 5.44921875 C-15.61303256 4.05504553 -7.23629374 0 0 0 Z " fill="#E3B5D7" transform="translate(586,39)"/>
<path d="M0 0 C15.7826087 8.33395005 15.7826087 8.33395005 22 13 C22 13.66 22 14.32 22 15 C22.78375 15.268125 23.5675 15.53625 24.375 15.8125 C27 17 27 17 29 20 C23.78930245 18.30154325 19.55045014 15.18046973 15.0625 12.125 C14.27681641 11.59519531 13.49113281 11.06539062 12.68164062 10.51953125 C11.1526859 9.48828648 9.62605981 8.45357881 8.10205078 7.41503906 C6.77883611 6.52428967 5.4450638 5.64883945 4.09716797 4.79589844 C2.70038027 3.91117057 1.34441232 2.96245248 0 2 C0 1.34 0 0.68 0 0 Z " fill="#CE81C6" transform="translate(1568,594)"/>
<path d="M0 0 C0.33 0 0.66 0 1 0 C1.13277344 1.21816406 1.26554687 2.43632812 1.40234375 3.69140625 C1.58066967 5.3151107 1.75905843 6.93880825 1.9375 8.5625 C2.02451172 9.36236328 2.11152344 10.16222656 2.20117188 10.98632812 C2.71755319 15.67201046 3.30653214 20.33642866 4 25 C4.83149855 30.7281011 5.12054783 36.2137042 5 42 C4.67 42 4.34 42 4 42 C1.79097394 27.99356947 -0.2831547 14.22065851 0 0 Z " fill="#CB7CBC" transform="translate(1427,374)"/>
<path d="M0 0 C-6.90167964 5.62359082 -14.22572997 6.0870955 -22.828125 6.23046875 C-25 6 -25 6 -27 4 C-25.48599609 4.061875 -25.48599609 4.061875 -23.94140625 4.125 C-19.88881479 3.99647381 -16.78729844 3.22784269 -12.9375 2 C-8.43095728 0.5658737 -4.73789786 -0.23076519 0 0 Z " fill="#E2B3D9" transform="translate(504,64)"/>
<path d="M0 0 C0.33 0.99 0.66 1.98 1 3 C-0.61849065 4.83946539 -2.24418831 6.67151417 -3.875 8.5 C-4.33519531 9.02464844 -4.79539062 9.54929687 -5.26953125 10.08984375 C-6.47172076 11.43141755 -7.73245946 12.71999185 -9 14 C-9.66 14 -10.32 14 -11 14 C-11 14.66 -11 15.32 -11 16 C-11.99 16 -12.98 16 -14 16 C-14 15.34 -14 14.68 -14 14 C-13.34 14 -12.68 14 -12 14 C-11.67 13.01 -11.34 12.02 -11 11 C-8.9375 10.3125 -8.9375 10.3125 -7 10 C-7 8.68 -7 7.36 -7 6 C-5.46875 4.296875 -5.46875 4.296875 -3.5 2.75 C-2.8503125 2.22921875 -2.200625 1.7084375 -1.53125 1.171875 C-1.0259375 0.78515625 -0.520625 0.3984375 0 0 Z " fill="#CFA6DB" transform="translate(49,965)"/>
<path d="M0 0 C0 3.64042307 -0.64752981 4.04549338 -3.0625 6.625 C-6.95875669 10.90293082 -10.49573485 15.39865488 -14 20 C-14.33 19.34 -14.66 18.68 -15 18 C-14.44570313 17.26394531 -13.89140625 16.52789063 -13.3203125 15.76953125 C-12.59585937 14.79371094 -11.87140625 13.81789063 -11.125 12.8125 C-10.40570312 11.84957031 -9.68640625 10.88664063 -8.9453125 9.89453125 C-7.19104058 7.28425918 -6.15541156 4.89630072 -5 2 C-2.9375 1.25 -2.9375 1.25 -1 1 C-0.67 0.67 -0.34 0.34 0 0 Z " fill="#B283CE" transform="translate(31,985)"/>
<path d="M0 0 C0.33 0 0.66 0 1 0 C1.57446809 20.72340426 1.57446809 20.72340426 -2 29 C-2.33 29 -2.66 29 -3 29 C-2.367277 19.27604657 -1.27665042 9.65544349 0 0 Z " fill="#B287D8" transform="translate(826,866)"/>
<path d="M0 0 C1.89324687 2.83987031 2.42684829 4.25506753 3.0703125 7.4921875 C3.33134766 8.79736328 3.33134766 8.79736328 3.59765625 10.12890625 C3.77167969 11.03511719 3.94570312 11.94132813 4.125 12.875 C4.30675781 13.77347656 4.48851562 14.67195312 4.67578125 15.59765625 C5.50436587 19.81533886 6.09847955 23.68697804 6 28 C0.54607316 19.81910974 0.40382016 9.5385107 0 0 Z " fill="#E19ED0" transform="translate(1399,209)"/>
<path d="M0 0 C0 0.66 0 1.32 0 2 C-0.66 2 -1.32 2 -2 2 C-2.22816406 2.56332031 -2.45632812 3.12664063 -2.69140625 3.70703125 C-4.35800939 6.62731794 -6.42720751 8.45735763 -8.9375 10.6875 C-9.81277344 11.47511719 -10.68804687 12.26273438 -11.58984375 13.07421875 C-14 15 -14 15 -17 16 C-17 15.34 -17 14.68 -17 14 C-15.49609375 12.51953125 -15.49609375 12.51953125 -13.4375 10.8125 C-9.89003826 7.81322507 -6.63477128 4.66004868 -3.4453125 1.28515625 C-2 0 -2 0 0 0 Z " fill="#D6B0DD" transform="translate(159,856)"/>
<path d="M0 0 C7.15062486 0.40475235 12.62704304 2.82523652 19 6 C14.94758855 7.68425161 11.68293741 6.14931311 7.8125 4.6875 C7.17119141 4.46126953 6.52988281 4.23503906 5.86914062 4.00195312 C1.13332761 2.26665522 1.13332761 2.26665522 0 0 Z " fill="#DEADD5" transform="translate(1444,541)"/>
<path d="M0 0 C0.556875 0.226875 1.11375 0.45375 1.6875 0.6875 C0.264375 1.491875 0.264375 1.491875 -1.1875 2.3125 C-3.46312124 3.59892262 -5.68899811 4.92579714 -7.8984375 6.32421875 C-9.21714844 7.15373047 -9.21714844 7.15373047 -10.5625 8 C-11.39265625 8.53238281 -12.2228125 9.06476562 -13.078125 9.61328125 C-15.3125 10.6875 -15.3125 10.6875 -18.3125 9.6875 C-16.85712432 8.84901196 -15.39809627 8.01686066 -13.9375 7.1875 C-12.71933594 6.49140625 -12.71933594 6.49140625 -11.4765625 5.78125 C-9.3125 4.6875 -9.3125 4.6875 -7.3125 4.6875 C-7.3125 4.0275 -7.3125 3.3675 -7.3125 2.6875 C-3.15982824 -0.42700382 -3.15982824 -0.42700382 0 0 Z " fill="#AE79C3" transform="translate(398.3125,684.3125)"/>
<path d="M0 0 C0 0.66 0 1.32 0 2 C-0.59167969 2.31453125 -1.18335938 2.6290625 -1.79296875 2.953125 C-6.18648236 5.33264624 -10.21154795 7.70038047 -14 11 C-14.66 10.67 -15.32 10.34 -16 10 C-12.15364338 5.6573393 -6.12239358 0 0 0 Z " fill="#BC89CD" transform="translate(361,707)"/>
<path d="M0 0 C-7.2 6 -7.2 6 -12 6 C-12 5.34 -12 4.68 -12 4 C-10.390625 2.67578125 -10.390625 2.67578125 -8.25 1.3125 C-7.55390625 0.85488281 -6.8578125 0.39726563 -6.140625 -0.07421875 C-3.60909275 -1.16906025 -2.53899138 -0.9435441 0 0 Z " fill="#C195D0" transform="translate(331,728)"/>
<path d="M0 0 C4.98012761 1.50912958 8.24259942 4.55661849 12 8 C8.40239524 8 7.7784377 7.10487704 5 5 C2.85266073 4.29485154 2.85266073 4.29485154 1 4 C0.67 2.68 0.34 1.36 0 0 Z " fill="#E0ADD9" transform="translate(1608,624)"/>
<path d="M0 0 C0 3 0 3 -1.96875 5.26171875 C-2.8040625 6.06222656 -3.639375 6.86273437 -4.5 7.6875 C-5.3353125 8.49574219 -6.170625 9.30398438 -7.03125 10.13671875 C-8.00578125 11.05904297 -8.00578125 11.05904297 -9 12 C-9.99 11.67 -10.98 11.34 -12 11 C-8.04 7.37 -4.08 3.74 0 0 Z " fill="#D9B1DA" transform="translate(139,873)"/>
<path d="M0 0 C0 0.99 0 1.98 0 3 C-1.7578125 3.94401042 -3.515625 4.88802083 -5.2734375 5.83203125 C-7.30502365 7.04763493 -7.30502365 7.04763493 -9 10 C-10.32 9.67 -11.64 9.34 -13 9 C-8.375 5 -8.375 5 -5 5 C-5 4.34 -5 3.68 -5 3 C-2.46153846 0 -2.46153846 0 0 0 Z " fill="#C291D0" transform="translate(405,680)"/>
<path d="M0 0 C10.55808656 1.92710706 10.55808656 1.92710706 15 4 C15 4.66 15 5.32 15 6 C9.86626838 4.60961435 4.96260257 2.91539047 0 1 C0 0.67 0 0.34 0 0 Z " fill="#D691CC" transform="translate(1467,548)"/>
<path d="M0 0 C6.16456476 0.37742233 9.17375515 2.15870308 14 6 C13.01 6.495 13.01 6.495 12 7 C9.1796875 5.78515625 9.1796875 5.78515625 5.875 4.0625 C4.77929688 3.49660156 3.68359375 2.93070313 2.5546875 2.34765625 C1.71164062 1.90292969 0.86859375 1.45820312 0 1 C0 0.67 0 0.34 0 0 Z " fill="#DFA8D5" transform="translate(1515,569)"/>
<path d="M0 0 C0.33 1.32 0.66 2.64 1 4 C0.030625 4.61875 -0.93875 5.2375 -1.9375 5.875 C-5.02835362 7.65678846 -5.02835362 7.65678846 -6 10 C-6.66 10 -7.32 10 -8 10 C-6.34908222 5.70761377 -3.26245434 3.1206085 0 0 Z " fill="#D5AFDD" transform="translate(70,942)"/>
<path d="M0 0 C0.33 0 0.66 0 1 0 C2.0006709 5.96345767 2.0662997 10.28728907 0 16 C-0.33 16 -0.66 16 -1 16 C-1.09688221 10.55306686 -1.12862175 5.36095333 0 0 Z " fill="#DCB5DE" transform="translate(1429,841)"/>
<path d="M0 0 C0.99 0.33 1.98 0.66 3 1 C0.19195732 3.96404505 -2.18315774 6.44499019 -6 8 C-6.33 7.01 -6.66 6.02 -7 5 C-2.25 2 -2.25 2 0 2 C0 1.34 0 0.68 0 0 Z " fill="#AD7AC9" transform="translate(168,844)"/>
<path d="M0 0 C1.32 0 2.64 0 4 0 C5.4375 2.1875 5.4375 2.1875 7 5 C8.62836738 6.7041054 10.28769752 8.38025441 12 10 C9.00745382 8.59808647 6.4045389 6.96632511 3.75 5 C3.04359375 4.484375 2.3371875 3.96875 1.609375 3.4375 C0.81273437 2.7259375 0.81273437 2.7259375 0 2 C0 1.34 0 0.68 0 0 Z " fill="#C399D8" transform="translate(628,827)"/>
<path d="M0 0 C0.99 0.495 0.99 0.495 2 1 C3.21774968 5.29794004 4.17672405 9.60919494 5 14 C4.01 13.67 3.02 13.34 2 13 C1.66307215 11.39658445 1.33058907 9.79223445 1 8.1875 C0.814375 7.29417969 0.62875 6.40085938 0.4375 5.48046875 C0 3 0 3 0 0 Z " fill="#CE8AC9" transform="translate(786,239)"/>
<path d="M0 0 C0.99 0.33 1.98 0.66 3 1 C-0.3 4.3 -3.6 7.6 -7 11 C-7.66 10.67 -8.32 10.34 -9 10 C-8.27683594 9.29423828 -8.27683594 9.29423828 -7.5390625 8.57421875 C-6.90742187 7.95160156 -6.27578125 7.32898438 -5.625 6.6875 C-4.68527344 5.76517578 -4.68527344 5.76517578 -3.7265625 4.82421875 C-1.81913393 2.91187472 -1.81913393 2.91187472 0 0 Z " fill="#DEBAE2" transform="translate(61,952)"/>
<path d="M0 0 C0.66 0.33 1.32 0.66 2 1 C0.625 2.5 0.625 2.5 -1 4 C-1.66 4 -2.32 4 -3 4 C-3.33 4.99 -3.66 5.98 -4 7 C-6.5625 8.1875 -6.5625 8.1875 -9 9 C-8.375 6.6875 -8.375 6.6875 -7 4 C-3.9375 2.25 -3.9375 2.25 -1 1 C-0.67 0.67 -0.34 0.34 0 0 Z " fill="#BC8CCF" transform="translate(185,831)"/>
<path d="M0 0 C0.66 0.33 1.32 0.66 2 1 C-1.48720616 5.3590077 -4.72760915 5.94552183 -10 7 C-7.97838446 3.96757669 -7.12981578 3.29189454 -4 1.75 C-3.29875 1.39421875 -2.5975 1.0384375 -1.875 0.671875 C-1.25625 0.45015625 -0.6375 0.2284375 0 0 Z " fill="#D4A9D9" transform="translate(341,720)"/>
<path d="M0 0 C1.44096586 0.42594588 2.87768712 0.86626633 4.3125 1.3125 C5.11300781 1.55613281 5.91351563 1.79976562 6.73828125 2.05078125 C9 3 9 3 12 6 C8.7 5.34 5.4 4.68 2 4 C2 3.34 2 2.68 2 2 C1.34 2 0.68 2 0 2 C0 1.34 0 0.68 0 0 Z " fill="#E0B6DC" transform="translate(369,20)"/>
<path d="M0 0 C0.66 0.33 1.32 0.66 2 1 C1.0479279 2.00596297 0.08812654 3.00461563 -0.875 4 C-1.40867188 4.556875 -1.94234375 5.11375 -2.4921875 5.6875 C-4 7 -4 7 -6 7 C-6 7.66 -6 8.32 -6 9 C-6.66 9 -7.32 9 -8 9 C-7.34 7.68 -6.68 6.36 -6 5 C-5.34 5 -4.68 5 -4 5 C-4 4.01 -4 3.02 -4 2 C-2.125 0.9375 -2.125 0.9375 0 0 Z " fill="#B07FC9" transform="translate(148,863)"/>
<path d="M0 0 C0.66 0.33 1.32 0.66 2 1 C-0.88341534 5.21422242 -3.04303419 6.76075855 -8 8 C-5.33333333 5.33333333 -2.66666667 2.66666667 0 0 Z " fill="#D7B1DD" transform="translate(278,761)"/>
<path d="M0 0 C0.66 0.33 1.32 0.66 2 1 C0.85760183 2.33627775 -0.28901055 3.66895388 -1.4375 5 C-2.07558594 5.7425 -2.71367188 6.485 -3.37109375 7.25 C-4.17740234 8.11625 -4.17740234 8.11625 -5 9 C-5.33 9 -5.66 9 -6 9 C-6 7.35 -6 5.7 -6 4 C-5.38125 3.896875 -4.7625 3.79375 -4.125 3.6875 C-1.63473516 3.12474627 -1.63473516 3.12474627 0 0 Z " fill="#B78AD5" transform="translate(6,1016)"/>
<path d="M0 0 C0.99 0.33 1.98 0.66 3 1 C0.68462045 4.72114571 -1.28579473 7.61229661 -5 10 C-4.6875 8.125 -4.6875 8.125 -4 6 C-3.01 5.34 -2.02 4.68 -1 4 C-0.27617533 1.94074861 -0.27617533 1.94074861 0 0 Z " fill="#B689D0" transform="translate(13,1005)"/>
<path d="M0 0 C7.57142857 4 7.57142857 4 10 8 C8.68 7.67 7.36 7.34 6 7 C6 6.34 6 5.68 6 5 C5.195625 4.731875 4.39125 4.46375 3.5625 4.1875 C2.716875 3.795625 1.87125 3.40375 1 3 C0.67 2.01 0.34 1.02 0 0 Z " fill="#C49BDA" transform="translate(646,841)"/>
<path d="M0 0 C0.66 0.33 1.32 0.66 2 1 C0.71372289 2.17260611 -0.57919783 3.3379283 -1.875 4.5 C-2.59429687 5.1496875 -3.31359375 5.799375 -4.0546875 6.46875 C-6 8 -6 8 -8 8 C-7.9375 6.25 -7.9375 6.25 -7 4 C-4.74876994 2.27481113 -2.59865097 1.23093993 0 0 Z " fill="#AC79C5" transform="translate(212,808)"/>
<path d="M0 0 C0.99 0 1.98 0 3 0 C4.5625 2.8125 4.5625 2.8125 6 6 C5.67 6.99 5.34 7.98 5 9 C2.38952199 7.694761 2.31933577 6.64173426 1.375 3.9375 C1.11460938 3.20402344 0.85421875 2.47054687 0.5859375 1.71484375 C0.39257812 1.14894531 0.19921875 0.58304688 0 0 Z " fill="#D093D2" transform="translate(1689,715)"/>
<path d="M0 0 C3.71888239 0.50712033 6.73454239 1.11608215 10 3 C8.375 3.6875 8.375 3.6875 6 4 C2.75 2.5625 2.75 2.5625 0 1 C0 0.67 0 0.34 0 0 Z " fill="#E0B6DD" transform="translate(381,26)"/>
<path d="M0 0 C0.33 1.32 0.66 2.64 1 4 C-1.4375 6.75 -1.4375 6.75 -4 9 C-4.66 8.67 -5.32 8.34 -6 8 C-4.02 5.36 -2.04 2.72 0 0 Z " fill="#DDB8E1" transform="translate(35,981)"/>
<path d="M0 0 C1.32 0.33 2.64 0.66 4 1 C1.03 3.475 1.03 3.475 -2 6 C-2.66 5.67 -3.32 5.34 -4 5 C-2.68 3.35 -1.36 1.7 0 0 Z " fill="#C498D2" transform="translate(266,768)"/>
<path d="M0 0 C0.33 0.99 0.66 1.98 1 3 C-0.65 4.65 -2.3 6.3 -4 8 C-4.66 7.67 -5.32 7.34 -6 7 C-4.02 4.69 -2.04 2.38 0 0 Z " fill="#DDB5E1" transform="translate(22,998)"/>
<path d="M0 0 C2.94956528 1.36944102 5.52468811 2.87830409 8 5 C8 5.66 8 6.32 8 7 C4.2047869 5.50902342 2.38957269 3.24299151 0 0 Z " fill="#C197D4" transform="translate(713,897)"/>
<path d="M0 0 C0.66 0.33 1.32 0.66 2 1 C-0.31 3.31 -2.62 5.62 -5 8 C-5 5 -5 5 -2.5 2.3125 C-1.675 1.549375 -0.85 0.78625 0 0 Z " fill="#B07EC7" transform="translate(137,873)"/>
<path d="M0 0 C3.53600465 1.91135386 5.78972846 3.62642766 8 7 C4.66272214 5.82744291 2.22562513 4.81131596 0 2 C0 1.34 0 0.68 0 0 Z " fill="#C396DC" transform="translate(664,855)"/>
</svg>
