<svg width="717" height="184" viewBox="0 0 717 184" fill="none" xmlns="http://www.w3.org/2000/svg">
<rect width="717" height="184" fill="white"/>
<rect y="1" width="717" height="183" fill="white"/>
<path d="M121.301 140.536C114.218 140.536 107.69 139.427 101.717 137.208C95.8285 134.904 90.6658 131.661 86.2285 127.48C81.8765 123.299 78.4632 118.392 75.9885 112.76C73.5992 107.128 72.4045 100.941 72.4045 94.2C72.4045 87.4587 73.5992 81.272 75.9885 75.64C78.4632 70.008 81.9192 65.1013 86.3565 60.92C90.7938 56.7387 95.9992 53.5387 101.973 51.32C107.946 49.016 114.517 47.864 121.685 47.864C129.621 47.864 136.746 49.1867 143.061 51.832C149.461 54.4773 154.837 58.3173 159.189 63.352L145.877 75.64C142.634 72.2267 139.093 69.7093 135.253 68.088C131.413 66.3813 127.231 65.528 122.709 65.528C118.357 65.528 114.389 66.2107 110.805 67.576C107.221 68.9413 104.106 70.904 101.461 73.464C98.9005 76.024 96.8952 79.0533 95.4445 82.552C94.0792 86.0507 93.3965 89.9333 93.3965 94.2C93.3965 98.3813 94.0792 102.221 95.4445 105.72C96.8952 109.219 98.9005 112.291 101.461 114.936C104.106 117.496 107.178 119.459 110.677 120.824C114.261 122.189 118.186 122.872 122.453 122.872C126.549 122.872 130.517 122.232 134.357 120.952C138.282 119.587 142.079 117.325 145.749 114.168L157.525 129.144C152.661 132.813 146.986 135.629 140.501 137.592C134.101 139.555 127.701 140.536 121.301 140.536ZM138.581 126.456V92.792H157.525V129.144L138.581 126.456ZM217.419 139V125.56L216.139 122.616V98.552C216.139 94.2853 214.816 90.9573 212.171 88.568C209.611 86.1787 205.643 84.984 200.267 84.984C196.597 84.984 192.971 85.5813 189.387 86.776C185.888 87.8853 182.901 89.4213 180.427 91.384L173.259 77.432C177.013 74.7867 181.536 72.7387 186.827 71.288C192.117 69.8373 197.493 69.112 202.955 69.112C213.451 69.112 221.6 71.5867 227.403 76.536C233.205 81.4853 236.107 89.208 236.107 99.704V139H217.419ZM196.427 140.024C191.051 140.024 186.443 139.128 182.603 137.336C178.763 135.459 175.819 132.941 173.771 129.784C171.723 126.627 170.699 123.085 170.699 119.16C170.699 115.064 171.68 111.48 173.643 108.408C175.691 105.336 178.891 102.947 183.243 101.24C187.595 99.448 193.269 98.552 200.267 98.552H218.571V110.2H202.443C197.749 110.2 194.507 110.968 192.715 112.504C191.008 114.04 190.155 115.96 190.155 118.264C190.155 120.824 191.136 122.872 193.099 124.408C195.147 125.859 197.92 126.584 201.419 126.584C204.747 126.584 207.733 125.816 210.379 124.28C213.024 122.659 214.944 120.312 216.139 117.24L219.211 126.456C217.76 130.893 215.115 134.264 211.275 136.568C207.435 138.872 202.485 140.024 196.427 140.024ZM342.171 69.112C347.632 69.112 352.453 70.2213 356.635 72.44C360.901 74.5733 364.229 77.9013 366.619 82.424C369.093 86.8613 370.331 92.5787 370.331 99.576V139H350.363V102.648C350.363 97.1013 349.211 93.0053 346.907 90.36C344.603 87.7147 341.36 86.392 337.179 86.392C334.277 86.392 331.675 87.0747 329.371 88.44C327.067 89.72 325.275 91.6827 323.995 94.328C322.715 96.9733 322.075 100.344 322.075 104.44V139H302.107V102.648C302.107 97.1013 300.955 93.0053 298.651 90.36C296.432 87.7147 293.232 86.392 289.051 86.392C286.149 86.392 283.547 87.0747 281.243 88.44C278.939 89.72 277.147 91.6827 275.867 94.328C274.587 96.9733 273.947 100.344 273.947 104.44V139H253.979V70.136H273.051V88.952L269.467 83.448C271.856 78.7547 275.227 75.2133 279.579 72.824C284.016 70.3493 289.051 69.112 294.683 69.112C300.997 69.112 306.501 70.7333 311.195 73.976C315.973 77.1333 319.131 81.9973 320.667 88.568L313.627 86.648C315.931 81.272 319.6 77.0053 324.635 73.848C329.755 70.6907 335.6 69.112 342.171 69.112ZM377.66 139L417.597 49.4H438.077L478.141 139H456.381L423.613 59.896H431.805L398.909 139H377.66ZM397.628 119.8L403.133 104.056H449.213L454.845 119.8H397.628ZM480.709 164.856C477.637 164.856 474.693 164.515 471.877 163.832C469.061 163.235 466.671 162.296 464.709 161.016L470.085 146.552C472.389 148.173 475.205 148.984 478.533 148.984C481.007 148.984 482.97 148.131 484.421 146.424C485.957 144.803 486.725 142.328 486.725 139V70.136H506.693V138.872C506.693 146.808 504.431 153.123 499.909 157.816C495.386 162.509 488.986 164.856 480.709 164.856ZM496.709 60.536C493.039 60.536 490.053 59.4693 487.749 57.336C485.445 55.2027 484.293 52.5573 484.293 49.4C484.293 46.2427 485.445 43.5973 487.749 41.464C490.053 39.3307 493.039 38.264 496.709 38.264C500.378 38.264 503.365 39.288 505.669 41.336C507.973 43.2987 509.125 45.8587 509.125 49.016C509.125 52.344 507.973 55.1173 505.669 57.336C503.45 59.4693 500.463 60.536 496.709 60.536ZM567.118 139V125.56L565.838 122.616V98.552C565.838 94.2853 564.516 90.9573 561.87 88.568C559.31 86.1787 555.342 84.984 549.966 84.984C546.297 84.984 542.67 85.5813 539.086 86.776C535.588 87.8853 532.601 89.4213 530.126 91.384L522.958 77.432C526.713 74.7867 531.236 72.7387 536.526 71.288C541.817 69.8373 547.193 69.112 552.654 69.112C563.15 69.112 571.3 71.5867 577.102 76.536C582.905 81.4853 585.806 89.208 585.806 99.704V139H567.118ZM546.126 140.024C540.75 140.024 536.142 139.128 532.302 137.336C528.462 135.459 525.518 132.941 523.47 129.784C521.422 126.627 520.398 123.085 520.398 119.16C520.398 115.064 521.38 111.48 523.342 108.408C525.39 105.336 528.59 102.947 532.942 101.24C537.294 99.448 542.969 98.552 549.966 98.552H568.27V110.2H552.142C547.449 110.2 544.206 110.968 542.414 112.504C540.708 114.04 539.854 115.96 539.854 118.264C539.854 120.824 540.836 122.872 542.798 124.408C544.846 125.859 547.62 126.584 551.118 126.584C554.446 126.584 557.433 125.816 560.078 124.28C562.724 122.659 564.644 120.312 565.838 117.24L568.91 126.456C567.46 130.893 564.814 134.264 560.974 136.568C557.134 138.872 552.185 140.024 546.126 140.024ZM603.679 139V70.136H622.751V89.592L620.063 83.96C622.111 79.096 625.396 75.4267 629.919 72.952C634.441 70.392 639.945 69.112 646.431 69.112V87.544C645.577 87.4587 644.809 87.416 644.127 87.416C643.444 87.3307 642.719 87.288 641.951 87.288C636.489 87.288 632.052 88.8667 628.639 92.024C625.311 95.096 623.647 99.9173 623.647 106.488V139H603.679Z" fill="#002B49"/>
<path d="M157.535 106L138.5 91.7452L157.535 91.7451V106Z" fill="#FFD400"/>
<path d="M138.5 106V91.745L157.5 106H138.5Z" fill="white"/>
<path d="M138 92V106H122.5V92H138Z" fill="#002B49"/>
<path d="M406.5 120.5L413.5 104H442L449 120.5H406.5Z" fill="#FFD400"/>
</svg>
