<?xml version="1.0" encoding="UTF-8"?>
<svg version="1.1" xmlns="http://www.w3.org/2000/svg" width="512" height="512">
<path d="M0 0 C0.6487207 0.38124023 1.29744141 0.76248047 1.96582031 1.15527344 C11.49753756 6.81230888 20.39700349 13.02005701 29 20 C29.99902344 20.7940625 30.99804688 21.588125 32.02734375 22.40625 C46.41050158 34.04529781 59.92829179 47.38177361 70.81005859 62.37011719 C71.99027012 63.98667281 73.20798286 65.57562981 74.42578125 67.1640625 C86.99681985 83.78152966 96.55636591 102.59505452 104 122 C104.42635742 123.10939941 104.42635742 123.10939941 104.86132812 124.24121094 C111.64975132 142.30823122 116.19176112 161.79039731 118 181 C118.10957031 181.97195312 118.21914063 182.94390625 118.33203125 183.9453125 C121.6065614 217.38918042 117.54618404 252.43686459 106 284 C105.70754395 284.80066895 105.41508789 285.60133789 105.11376953 286.42626953 C93.06568203 318.87127808 74.93508762 347.08127864 51 372 C49.71609375 373.34578125 49.71609375 373.34578125 48.40625 374.71875 C42.63235039 380.63882429 36.49413877 385.88928021 30 391 C29.06027344 391.76828125 28.12054688 392.5365625 27.15234375 393.328125 C-7.0289417 420.67315336 -49.59097838 437.26246718 -93 442 C-93.95390625 442.11085938 -94.9078125 442.22171875 -95.890625 442.3359375 C-157.27923543 448.28195474 -219.8364333 428.75498454 -267.55859375 389.91796875 C-273.96599488 384.56520771 -279.9952349 378.79541826 -286 373 C-286.94101562 372.10023438 -287.88203125 371.20046875 -288.8515625 370.2734375 C-331.15812469 329.01471586 -354.32382972 268.07253891 -355.16430664 209.6237793 C-355.37089362 181.79977564 -351.47642566 154.23842856 -342 128 C-341.72929687 127.24283691 -341.45859375 126.48567383 -341.1796875 125.70556641 C-337.21152416 114.7351709 -332.48982598 104.28834054 -327 94 C-326.64679688 93.33226562 -326.29359375 92.66453125 -325.9296875 91.9765625 C-318.4039216 77.84544811 -309.40513836 65.17029576 -299 53 C-298.34 52.22785156 -297.68 51.45570312 -297 50.66015625 C-286.26059067 38.43594222 -274.80368993 26.88727341 -261.67822266 17.23828125 C-260.04426048 16.03265772 -258.433795 14.80040594 -256.82421875 13.5625 C-184.39238791 -41.15621654 -77.82426984 -45.91163868 0 0 Z M-183 10 C-183.71687988 10.23976563 -184.43375977 10.47953125 -185.17236328 10.7265625 C-207.72235572 18.42836616 -228.63137653 29.7943339 -247 45 C-247.57733887 45.4758252 -248.15467773 45.95165039 -248.74951172 46.44189453 C-260.29934971 56.015323 -270.78177046 66.11495823 -280 78 C-280.41862305 78.53157715 -280.83724609 79.0631543 -281.26855469 79.61083984 C-300.56115459 104.24501578 -313.6520413 133.14730427 -320.25 163.6875 C-320.40122314 164.38633301 -320.55244629 165.08516602 -320.70825195 165.80517578 C-323.38845366 179.09570735 -324.4122369 192.34295937 -324.375 205.875 C-324.37445618 206.62879944 -324.37391235 207.38259888 -324.37335205 208.15924072 C-324.2294201 251.95946 -309.4386445 298.09962907 -281 332 C-278.05424317 328.53232229 -276.50773792 324.6643888 -274.8125 320.5 C-260.8769715 287.62214398 -230.84437082 264.97250122 -198.68261719 251.59887695 C-193.52419825 249.51385703 -188.29622913 247.70202399 -183 246 C-183 245.34 -183 244.68 -183 244 C-184.41386111 242.79972216 -185.88416686 241.66571652 -187.375 240.5625 C-208.36907955 224.06926685 -221.53545676 198.28786818 -225 172 C-227.17543574 141.42598332 -220.74866657 112.29668331 -200.39453125 88.6484375 C-199.60433594 87.77445312 -198.81414062 86.90046875 -198 86 C-197.17886719 85.08476562 -196.35773438 84.16953125 -195.51171875 83.2265625 C-176.38155381 62.99109915 -149.7777179 52.4059439 -122.234375 50.77734375 C-92.21099168 50.08955708 -64.26039826 60.6055102 -42.35766602 81.24389648 C-22.82371121 100.28402402 -10.98457909 127.36734873 -10.61987305 154.65380859 C-10.64611576 172.10146367 -12.88987808 186.97104095 -20 203 C-20.66128906 204.50626953 -20.66128906 204.50626953 -21.3359375 206.04296875 C-27.9941984 220.26074686 -38.52760293 233.50851764 -51.34765625 242.625 C-51.89292969 243.07875 -52.43820312 243.5325 -53 244 C-53 244.66 -53 245.32 -53 246 C-51.8140625 246.4125 -50.628125 246.825 -49.40625 247.25 C-26.99091757 255.18473406 -6.59649124 265.83218193 11 282 C11.87140625 282.78890625 12.7428125 283.5778125 13.640625 284.390625 C25.32548712 295.48756953 33.35023618 308.44875212 40 323 C40.45503906 323.99257813 40.91007812 324.98515625 41.37890625 326.0078125 C42.27329274 327.99603054 43.14120731 329.99615039 44 332 C47.82893782 328.39509578 50.86923682 324.59562434 53.75 320.1875 C54.18119141 319.52862793 54.61238281 318.86975586 55.05664062 318.19091797 C56.3858654 316.13626342 57.69683971 314.07127112 59 312 C59.38736328 311.38753418 59.77472656 310.77506836 60.17382812 310.14404297 C87.62779752 266.03864431 94.99671479 209.31108095 83.31835938 159.06738281 C81.79451791 152.96152216 79.9984307 146.96627447 78 141 C77.76023437 140.28312012 77.52046875 139.56624023 77.2734375 138.82763672 C69.57163384 116.27764428 58.2056661 95.36862347 43 77 C42.5241748 76.42266113 42.04834961 75.84532227 41.55810547 75.25048828 C31.984677 63.70065029 21.88504177 53.21822954 10 44 C9.46842285 43.58137695 8.9368457 43.16275391 8.38916016 42.73144531 C-16.24501578 23.43884541 -45.14730427 10.3479587 -75.6875 3.75 C-76.38633301 3.59877686 -77.08516602 3.44755371 -77.80517578 3.29174805 C-90.9007237 0.65086723 -103.97723726 -0.41304421 -117.3125 -0.375 C-118.40526749 -0.37418427 -118.40526749 -0.37418427 -119.52011108 -0.37335205 C-141.33796698 -0.2993119 -162.29733323 3.06554786 -183 10 Z M-144 85 C-145.34384766 85.433125 -145.34384766 85.433125 -146.71484375 85.875 C-165.58322165 92.55196153 -180.42014451 108.1131904 -189.03417969 125.82519531 C-197.90677546 145.34490601 -197.95690974 166.53100005 -190.875 186.625 C-182.31765406 207.13224915 -167.24540483 221.68155323 -147.125 230.8125 C-127.44486825 238.45727559 -106.13623297 238.07439501 -86.75 229.8125 C-67.74579669 221.23047019 -53.10538847 205.81593418 -45.125 186.625 C-37.70455211 165.57044198 -38.58352536 144.28163768 -48 124 C-57.84663523 104.59380346 -74.06747864 91.19924902 -94.41015625 84.078125 C-102.23652652 81.72765906 -109.43957727 80.61058397 -117.625 80.625 C-119.06697754 80.62741699 -119.06697754 80.62741699 -120.53808594 80.62988281 C-128.89216082 80.77223424 -136.09270161 82.20576449 -144 85 Z M-230 307 C-242.34912352 319.7211918 -250.26294122 334.70996019 -254 352 C-254.1750708 352.69061523 -254.3501416 353.38123047 -254.53051758 354.09277344 C-255.08128468 356.44320858 -255.08128468 356.44320858 -255 360 C-253.21546967 362.33539275 -251.98178724 363.56293654 -249.6875 365.25 C-249.10863037 365.70544189 -248.52976074 366.16088379 -247.93334961 366.63012695 C-240.27407608 372.53492399 -232.17181854 377.83954659 -224 383 C-223.11755615 383.56630127 -223.11755615 383.56630127 -222.21728516 384.14404297 C-198.80879211 399.02510648 -171.21446314 406.95256597 -144 411 C-143.31558838 411.1045752 -142.63117676 411.20915039 -141.92602539 411.31689453 C-134.26714143 412.33226655 -126.5249377 412.24378726 -118.8125 412.25 C-118.05878113 412.25067474 -117.30506226 412.25134949 -116.52850342 412.25204468 C-103.82100421 412.23403776 -91.48878592 411.51658201 -79 409 C-77.7620166 408.75056641 -77.7620166 408.75056641 -76.49902344 408.49609375 C-57.06953162 404.40886135 -38.41863262 397.50022145 -21 388 C-20.4028418 387.68063477 -19.80568359 387.36126953 -19.19042969 387.03222656 C-5.26618778 379.55790598 7.04772231 370.28859068 19 360 C14.73651548 332.99793136 2.04254903 311.35414928 -20 295 C-79.72158269 251.83774705 -176.32529135 255.75314182 -230 307 Z " fill="#1C1C1A" transform="translate(374,50)"/>
</svg>
